<?xml version="1.0" encoding="UTF-8" standalone="no"?>
<svg
   viewBox="0 0 576 512"
   xmlns="http://www.w3.org/2000/svg">
  <!--! Font Awesome Pro 6.4.0 by @fontawesome - https://fontawesome.com License - https://fontawesome.com/license (Commercial License) Copyright 2023 Fonticons, Inc. -->
  <defs
     id="defs756">
    <linearGradient id="grad1">
      <stop
         offset="0%"
         stop-color="blue"
         id="stop747" />
      <stop
         offset="45%"
         stop-color="blue"
         id="stop749" />
      <stop
         offset="0.44999999"
         stop-color="transparent"
         id="stop751"
         style="stop-color:#010101;stop-opacity:0;" />
      <stop
         offset="1"
         stop-color="transparent"
         id="stop753"
         style="stop-color:#000000;stop-opacity:0;" />
    </linearGradient>
  </defs>
  <path
     fill="url(#grad1)"
     d="M 319.36799,21.257863 C 313.66504,10.395302 301.61351,3.4827634 288.37836,3.4827634 c -13.23516,0 -25.1791,6.9125386 -30.98965,17.7750996 L 188.20004,151.90485 33.68225,172.83998 c -12.912349,1.7775 -23.672641,10.07255 -27.6539492,21.42886 -3.981307,11.35631 -0.7532202,23.89763 8.5006292,32.29143 L 126.65117,328.3721 100.18086,472.25166 c -2.152064,11.85007 3.22808,23.89763 13.88077,30.90891 10.65268,7.01131 24.74866,7.90004 36.36977,2.27127 l 138.05456,-67.64413 138.05453,67.64413 c 11.62112,5.62877 25.7171,4.83879 36.36979,-2.27127 10.6527,-7.11003 16.03284,-19.05884 13.88077,-30.90891 L 450.21313,328.3721 562.33538,226.56027 c 9.25385,-8.3938 12.58955,-20.93512 8.50063,-32.29143 -4.08891,-11.35631 -14.74161,-19.65136 -27.65396,-21.42886 L 388.55666,151.90485 Z"
     id="path758"
     style="display:inline;fill:url(#grad1);stroke:#000000;stroke-width:5.1541;stroke-dasharray:none;stroke-opacity:1"
  />
</svg>
